<svg width="25" height="24" viewBox="0 0 25 24" fill="none" xmlns="http://www.w3.org/2000/svg">
<path d="M8.89062 22.3906C8.63281 22.6484 8.30469 22.7891 7.91797 22.7891C7.14453 22.7891 6.52344 22.1797 6.52344 21.4062C6.52344 21.0195 6.6875 20.668 6.95703 20.3984L15.1602 12.3828L6.95703 4.39062C6.6875 4.12109 6.52344 3.75781 6.52344 3.38281C6.52344 2.60938 7.14453 2 7.91797 2C8.30469 2 8.63281 2.14062 8.89062 2.39844L18.0078 11.3047C18.3359 11.6094 18.4883 11.9844 18.5 12.3945C18.5 12.8047 18.3359 13.1562 18.0078 13.4727L8.89062 22.3906Z" fill="#0000FF" fill-opacity="0.75"/>
</svg>
